<?xml version="1.0" encoding="utf-8"?>
<!-- Generator: Adobe Illustrator 21.0.0, SVG Export Plug-In . SVG Version: 6.00 Build 0)  -->
<svg version="1.1" id="Layer_1" xmlns="http://www.w3.org/2000/svg" xmlns:xlink="http://www.w3.org/1999/xlink" x="0px" y="0px"
	 viewBox="0 0 614.1 800" style="enable-background:new 0 0 614.1 800;" xml:space="preserve">
<style type="text/css">
	.st0{fill:#283645;stroke:#231F20;stroke-miterlimit:10;}
</style>
<path class="st0" d="M310,11l-3.2-0.4L-0.5,42.7V606l307.3,182.7L614.1,606V42.7L310,11z M574,583.1L306.8,741.8L39.6,582.7V352
	l266,158.3l0.4,28.8L123.7,430.5l-0.4,28l183.1,110.2l0.4,29.2L123.7,489l-0.4,28l183.1,110.2l185.1-110.6v-28h-0.4V479v-11.6v-70.1
	l82.5-49.3v235.2h0.4V583.1z M573.6,318.3l-72.9,42.9l-33.7,20l-160.7-95.8l-0.4,28l137.4,81.7l-1.2,0.8l-2.8,1.6l-19.6,11.6
	l-113.4-67.7l-0.4,28l89.7,53.3l-21.2,14l-0.4,0.4L306.3,397l-0.4,28l44.5,26l-45.3,27.2L40.8,321.1l264.8-159.5l0,0L573.6,318.3z
	 M574,290.3L305.6,132l0,0l0,0l0,0l0,0L40,290.3V79.1l267.2-28l267.2,28v211.1L574,290.3L574,290.3z"/>
</svg>
