<svg>
    <symbol id="crop" x="0px" y="0px" viewBox="0 0 48 48">
        <path class="st0" fill="none" d="M0,0h48v48H0V0z"/>
        <path d="M34,30h4V14c0-2.2-1.8-4-4-4H18v4h16V30z M14,34V2h-4v8H2v4h8v20c0,2.2,1.8,4,4,4h20v8h4v-8h8v-4H14z"/>
    </symbol>
    <symbol id="contrast" x="0px" y="0px" viewBox="-35.4 -8 31.9 31.9">
        <g>
            <path class="st0" d="M-19.5-4c6.6,0,12,5.4,12,12s-5.4,12-12,12s-12-5.4-12-12S-26.1-4-19.5-4 M-19.5-8c-8.8,0-16,7.1-16,16
                c0,8.8,7.1,16,16,16c8.8,0,16-7.1,16-16C-3.5-0.8-10.6-8-19.5-8L-19.5-8z"/>
        </g>
        <path d="M-19.5,16.3c4.7,0,8.5-3.8,8.5-8.5c0-4.7-3.8-8.5-8.5-8.5"/>
    </symbol>
    <symbol id="fill" x="0px" y="0px" viewBox="0 0 48 48">
        <path class="st0" fill="none" d="M0,0h48v48H0V0z"/>
        <path d="M33.1,17.9L15.2,0l-2.8,2.8l4.8,4.8L6.9,17.9c-1.2,1.2-1.2,3.1,0,4.2l11,11c0.6,0.6,1.4,0.9,2.1,0.9s1.5-0.3,2.1-0.9l11-11
            C34.3,21,34.3,19,33.1,17.9z M10.4,20l9.6-9.6l9.6,9.6H10.4z M38,23c0,0-4,4.3-4,7c0,2.2,1.8,4,4,4s4-1.8,4-4C42,27.3,38,23,38,23z"
            />
        <rect y="40" width="48" height="3"/>
    </symbol>
</svg>