<svg xmlns="http://www.w3.org/2000/svg"><symbol id="icon-slide-contrast" viewBox="-35.4 -8 31.9 31.9"><style>.st0{fill:#231f20}</style><path class="st0" d="M-19.5-4c6.6 0 12 5.4 12 12s-5.4 12-12 12-12-5.4-12-12 5.4-12 12-12m0-4c-8.8 0-16 7.1-16 16 0 8.8 7.1 16 16 16 8.8 0 16-7.1 16-16 0-8.8-7.1-16-16-16z"/><path d="M-19.5 16.3c4.7 0 8.5-3.8 8.5-8.5s-3.8-8.5-8.5-8.5"/></symbol><symbol id="icon-slide-crop" viewBox="0 0 48 48"><style>.st0{fill:none}</style><path class="st0" d="M0 0h48v48H0V0z"/><path d="M34 30h4V14c0-2.2-1.8-4-4-4H18v4h16v16zm-20 4V2h-4v8H2v4h8v20c0 2.2 1.8 4 4 4h20v8h4v-8h8v-4H14z"/></symbol><symbol id="icon-slide-fill" viewBox="0 0 48 48"><style>.st0{fill:none}</style><path class="st0" d="M0 0h48v48H0V0z"/><path d="M33.1 17.9L15.2 0l-2.8 2.8 4.8 4.8L6.9 17.9c-1.2 1.2-1.2 3.1 0 4.2l11 11c.6.6 1.4.9 2.1.9s1.5-.3 2.1-.9l11-11c1.2-1.1 1.2-3.1 0-4.2zM10.4 20l9.6-9.6 9.6 9.6H10.4zM38 23s-4 4.3-4 7c0 2.2 1.8 4 4 4s4-1.8 4-4c0-2.7-4-7-4-7zM0 40h48v3H0z"/></symbol></svg>