<svg xmlns="http://www.w3.org/2000/svg"><symbol id="icon-email" viewBox="0 0 18 14"><style>.st0{fill:#fff}</style><path class="st0" d="M14.9 1.8c1.2-1 .9-1.8-.7-1.8H3.7c-1.5 0-1.8.8-.6 1.8l3.7 3.1c1.2 1 3.2 1 4.4 0l3.7-3.1z"/><path class="st0" d="M11.9 7c-1.2 1-2.2 1.8-2.2 1.8-.1.1-.2.2-.3.2h-.1c-.1.1-.2.1-.3.1-.1 0-.2 0-.3-.1h-.1c-.1 0-.2-.1-.3-.1 0 0-1-.8-2.2-1.8L2.2 3.8C1 2.8 0 3.3 0 4.8v6.3C0 12.7 1.3 14 2.8 14h12.3c1.6 0 2.8-1.3 2.8-2.8V4.8c0-1.6-1-2-2.2-1L11.9 7z"/></symbol><symbol id="icon-like" viewBox="521.9 473.1 12.5 12"><path d="M528.2 485.1c-.2 0-.4-.1-.6-.2-3.8-4.3-4.6-5.3-4.9-5.6-.5-.7-.8-1.5-.8-2.4 0-2.1 1.7-3.8 3.8-3.8.9 0 1.8.3 2.5.9.7-.6 1.6-.9 2.5-.9 2.1 0 3.8 1.7 3.8 3.8 0 .9-.3 1.8-.9 2.4l-4.9 5.6c-.1.1-.3.2-.5.2zm-4.3-6.8c.2.3 2.5 2.8 4.2 4.9l4.3-4.9c.3-.4.5-.9.5-1.4 0-1.3-1-2.3-2.3-2.3-.7 0-1.4.3-1.9.9-.1.2-.4.3-.6.3-.2 0-.4-.1-.6-.3-.4-.6-1.1-.9-1.9-.9-1.3 0-2.3 1-2.3 2.3.1.6.4 1.1.6 1.4z"/></symbol><symbol id="icon-phone" viewBox="0 0 19.7 19.7"><style>.st0{fill:#fff}</style><path class="st0" d="M9.8 0c-3.5 0-7 .6-8.3 1.9C.4 2.9.1 4.8 0 5.9v.2c0 .5.4.8.8.8.1 0 2-.2 3.2-.3h.1c.4 0 .8-.4.8-.8V4.2c0-.5.4-.9.9-.9h8c.5 0 .9.4.9.9v1.6c0 .4.4.8.8.8h.1c1.2.1 3.2.3 3.2.3.5 0 .8-.4.8-.8v-.2c-.1-1.2-.5-3-1.5-4C16.9.6 13.4 0 9.8 0zm0 10.7c-.9 0-1.6.7-1.6 1.6S8.9 14 9.8 14c.9 0 1.6-.7 1.6-1.6.1-1-.6-1.7-1.6-1.7zM8.6 7V6c0-.6-.5-1-1-1s-1 .5-1 1v1L1 12.9c-.4.4-.6.9-.6 1.5V16c0 .9.7 1.6 1.6 1.6h.4v1c0 .6.5 1 1 1 .6 0 1-.5 1-1v-1h10.7v1c0 .6.5 1 1 1 .6 0 1-.5 1-1v-1h.4c.9 0 1.6-.7 1.6-1.6v-1.6c0-.6-.2-1.1-.6-1.5L13.1 7V6c0-.6-.5-1-1-1-.6 0-1 .5-1 1v1H8.6zm1.2 2c1.8 0 3.3 1.5 3.3 3.3 0 1.8-1.5 3.3-3.3 3.3-1.8 0-3.3-1.5-3.3-3.3C6.6 10.5 8 9 9.8 9z"/></symbol><symbol id="icon-slide-contrast" viewBox="-35.4 -8 31.9 31.9"><style>.st0{fill:#231f20}</style><path class="st0" d="M-19.5-4c6.6 0 12 5.4 12 12s-5.4 12-12 12-12-5.4-12-12 5.4-12 12-12m0-4c-8.8 0-16 7.1-16 16 0 8.8 7.1 16 16 16 8.8 0 16-7.1 16-16 0-8.8-7.1-16-16-16z"/><path d="M-19.5 16.3c4.7 0 8.5-3.8 8.5-8.5s-3.8-8.5-8.5-8.5"/></symbol><symbol id="icon-slide-crop" viewBox="0 0 48 48"><style>.st0{fill:none}</style><path fill="none" class="st0" d="M0 0h48v48H0V0z"/><path d="M34 30h4V14c0-2.2-1.8-4-4-4H18v4h16v16zm-20 4V2h-4v8H2v4h8v20c0 2.2 1.8 4 4 4h20v8h4v-8h8v-4H14z"/></symbol><symbol id="icon-slide-fill" viewBox="0 0 48 48"><style>.st0{fill:none}</style><path fill="none" class="st0" d="M0 0h48v48H0V0z"/><path d="M33.1 17.9L15.2 0l-2.8 2.8 4.8 4.8L6.9 17.9c-1.2 1.2-1.2 3.1 0 4.2l11 11c.6.6 1.4.9 2.1.9s1.5-.3 2.1-.9l11-11c1.2-1.1 1.2-3.1 0-4.2zM10.4 20l9.6-9.6 9.6 9.6H10.4zM38 23s-4 4.3-4 7c0 2.2 1.8 4 4 4s4-1.8 4-4c0-2.7-4-7-4-7zM0 40h48v3H0z"/></symbol><symbol id="logo-desctop" viewBox="0 0 146.3 40.4"><style>.st0{fill:#fff}.st1{fill:#d22856}</style><path class="st0" d="M71.9 18.7c0-.7.6-1.3 1.3-1.3h7.2c5.1 0 8.4 2.7 8.4 7.1v.1c0 4.9-4.1 7.4-8.9 7.4h-5.5v6.8c0 .7-.6 1.3-1.3 1.3-.7 0-1.3-.6-1.3-1.3l.1-20.1zM80 29.6c3.7 0 6.2-2 6.2-5v-.1c0-3.2-2.4-4.9-6.1-4.9h-5.7v9.9l5.6.1zm13.6-11.1c0-.7.6-1.3 1.3-1.3.7 0 1.3.6 1.3 1.3v20.3c0 .7-.6 1.3-1.3 1.3-.7 0-1.3-.6-1.3-1.3V18.5zm9.1 0c0-.7.6-1.3 1.3-1.3h.4c.6 0 .9.3 1.3.7l13.7 17.4v-17c0-.7.5-1.3 1.3-1.3.7 0 1.2.6 1.2 1.3v20.3c0 .7-.5 1.2-1.2 1.2h-.1c-.5 0-.9-.3-1.3-.8l-14-17.9v17.4c0 .7-.5 1.3-1.3 1.3-.7 0-1.2-.6-1.2-1.3l-.1-20zm25.5 0c0-.7.6-1.3 1.3-1.3.7 0 1.3.6 1.3 1.3v12.3l12.8-13.2c.3-.3.6-.5 1-.5.7 0 1.2.6 1.2 1.3 0 .4-.2.6-.4.9l-8 7.9 8.6 10.6c.2.3.4.5.4.9 0 .7-.6 1.3-1.3 1.3-.5 0-.8-.3-1-.6L135.6 29l-4.9 4.9v4.9c0 .7-.6 1.3-1.3 1.3-.7 0-1.3-.6-1.3-1.3l.1-20.3z"/><path fill="#D22856" class="st1" d="M98.5 9.9c-2 0-3.6-1.6-3.6-3.6 0 2-1.6 3.6-3.6 3.6 2 0 3.6 1.6 3.6 3.6 0-2 1.6-3.6 3.6-3.6z"/><path class="st0" d="M43.1 19.3h.7c-.4-.7-1.2-1.2-2.1-1.2-.9 0-1.6-.6-1.9-1.4-.7.2-1.4.5-2.1.8h.2c1.1 0 2 .9 2 2v.3c1-.3 2.1-.5 3.2-.5z"/><path class="st0" d="M60.5 28L55.3 6.6C54.9 4.3 52.7 0 46.7 0c-.8 0-1.5.7-1.5 1.5S45.9 3 46.7 3c4.9 0 5.6 3.7 5.6 4.1l4.8 19.7H55c-.4-3.6-2.5-6.6-5.3-8.5-.9.4-1.5 1.3-1.5 2.3v.3c2 1.4 3.4 3.5 3.8 6 .1.5.1 1 .1 1.5s-.1 1-.1 1.5c-.7 4.3-4.4 7.5-8.9 7.5s-8.2-3.3-8.9-7.5c-.1-.5-.1-1-.1-1.5s.1-1 .1-1.5c.1-.9.4-1.7.8-2.5-1-.1-1.9-.9-1.9-2 0-.2-.1-.4-.2-.5-.9 1.5-1.6 3.1-1.8 5h-1.8c-.7-5.9-5.8-10.5-11.9-10.5S6.2 20.9 5.5 26.8H3.4L8.2 7.1C8.3 6.7 9 3 13.8 3c.8 0 1.5-.7 1.5-1.5S14.7 0 13.8 0c-6 0-8.2 4.3-8.6 6.7L0 28.1c-.3 1.1.5 1.8 1.4 1.8h4c.1.6.2 1.2.4 1.8.1-.1.2-.2.2-.4 0-1.1.9-2 2-2 .2 0 .3 0 .5.1 0-.3-.1-.7-.1-1 0-.5.1-1 .1-1.5.7-4.3 4.4-7.5 8.9-7.5s8.2 3.3 8.9 7.5c.1.5.1 1 .1 1.5s-.1 1-.1 1.5c-.7 4.3-4.4 7.5-8.9 7.5-2 0-3.9-.7-5.4-1.8-.4.3-.8.5-1.3.5-.4 0-.7.3-.7.7 0 .3-.1.6-.2.8 2.1 1.7 4.7 2.7 7.6 2.7 6.1 0 11.2-4.6 11.9-10.5h1.8c.7 5.9 5.8 10.5 11.9 10.5s11.3-4.5 12-10.5h4c.9 0 1.7-.7 1.5-1.8z"/><path fill="#D22856" class="st1" d="M50.7 16.1c-2.5 0-4.5-2-4.5-4.5 0 2.5-2 4.5-4.5 4.5 2.5 0 4.5 2 4.5 4.5 0-2.5 2-4.5 4.5-4.5zm-12.8 3.5c-1.5 0-2.7-1.2-2.7-2.7 0 1.5-1.2 2.7-2.7 2.7 1.5 0 2.7 1.2 2.7 2.7 0-1.4 1.2-2.7 2.7-2.7zM10.7 34.1c-1.5 0-2.7-1.2-2.7-2.8 0 1.5-1.2 2.8-2.7 2.8 1.5 0 2.7 1.2 2.7 2.7 0-1.5 1.2-2.7 2.7-2.7z"/></symbol><symbol id="logo-mobile" viewBox="0 0 74.4 22.9"><style>.st0{fill:#fff}</style><path class="st0" d="M0 1.4C0 .7.6.1 1.3.1h7.2c5.1 0 8.4 2.7 8.4 7.1v.1c0 4.9-4.1 7.4-8.9 7.4H2.5v6.8c0 .7-.6 1.3-1.3 1.3-.7 0-1.3-.6-1.3-1.3V1.4zm8.1 11c3.7 0 6.2-2 6.2-5 0-3.2-2.4-4.9-6.1-4.9H2.5v9.9h5.6zM21.7 1.3c0-.7.6-1.3 1.3-1.3.7 0 1.3.6 1.3 1.3v20.3c0 .7-.6 1.3-1.3 1.3-.7 0-1.3-.6-1.3-1.3V1.3zm9.2 0c0-.7.6-1.3 1.3-1.3h.4c.6 0 .9.3 1.3.7l13.7 17.4v-17C47.5.6 48 0 48.7 0c.7 0 1.2.6 1.2 1.3v20.3c0 .7-.5 1.2-1.2 1.2h-.1c-.5 0-.9-.3-1.3-.8l-14-17.9v17.5c0 .7-.5 1.3-1.3 1.3-.7 0-1.2-.6-1.2-1.3V1.3zm25.4 0c0-.7.6-1.3 1.3-1.3.7 0 1.3.6 1.3 1.3v12.3L71.7.5c.3-.3.6-.5 1-.5.7 0 1.2.6 1.2 1.3 0 .4-.2.6-.4.9l-8 7.9 8.6 10.6c.2.3.4.5.4.9 0 .7-.6 1.3-1.3 1.3-.5 0-.8-.3-1-.6l-8.4-10.5-4.9 4.9v4.9c0 .7-.6 1.3-1.3 1.3-.7 0-1.3-.6-1.3-1.3V1.3z"/></symbol><symbol id="logo-tablet" viewBox="0 0 146.3 40.4"><style>.st0{fill:#fff}</style><path class="st0" d="M71.9 18.7c0-.7.6-1.3 1.3-1.3h7.2c5.1 0 8.4 2.7 8.4 7.1v.1c0 4.9-4.1 7.4-8.9 7.4h-5.5v6.8c0 .7-.6 1.3-1.3 1.3-.7 0-1.3-.6-1.3-1.3l.1-20.1zM80 29.6c3.7 0 6.2-2 6.2-5v-.1c0-3.2-2.4-4.9-6.1-4.9h-5.7v9.9l5.6.1zm13.6-11.1c0-.7.6-1.3 1.3-1.3.7 0 1.3.6 1.3 1.3v20.3c0 .7-.6 1.3-1.3 1.3-.7 0-1.3-.6-1.3-1.3V18.5zm9.1 0c0-.7.6-1.3 1.3-1.3h.4c.6 0 .9.3 1.3.7l13.7 17.4v-17c0-.7.5-1.3 1.3-1.3.7 0 1.2.6 1.2 1.3v20.3c0 .7-.5 1.2-1.2 1.2h-.1c-.5 0-.9-.3-1.3-.8l-14-17.9v17.4c0 .7-.5 1.3-1.3 1.3-.7 0-1.2-.6-1.2-1.3l-.1-20zm25.5 0c0-.7.6-1.3 1.3-1.3.7 0 1.3.6 1.3 1.3v12.3l12.8-13.2c.3-.3.6-.5 1-.5.7 0 1.2.6 1.2 1.3 0 .4-.2.6-.4.9l-8 7.9 8.6 10.6c.2.3.4.5.4.9 0 .7-.6 1.3-1.3 1.3-.5 0-.8-.3-1-.6L135.6 29l-4.9 4.9v4.9c0 .7-.6 1.3-1.3 1.3-.7 0-1.3-.6-1.3-1.3l.1-20.3zM60.5 28L55.3 6.6C54.9 4.3 52.7 0 46.7 0c-.8 0-1.5.7-1.5 1.5S45.9 3 46.7 3c4.9 0 5.6 3.7 5.6 4.1l4.8 19.7H55c-.7-5.9-5.8-10.5-11.9-10.5s-11.2 4.6-11.9 10.5h-1.8c-.7-5.9-5.8-10.5-11.9-10.5s-11.3 4.6-12 10.5H3.4L8.2 7.1C8.3 6.7 9 3 13.8 3c.8 0 1.5-.7 1.5-1.5S14.7 0 13.8 0c-6 0-8.2 4.3-8.6 6.7L0 28.1c-.3 1.1.5 1.8 1.4 1.8h4c.7 5.9 5.8 10.5 11.9 10.5s11.2-4.6 11.9-10.5H31c.7 5.9 5.8 10.5 11.9 10.5S54.3 35.8 55 29.8h4c.9 0 1.7-.7 1.5-1.8zm-34.2 1.8c-.7 4.3-4.4 7.5-8.9 7.5S9.2 34 8.5 29.8c-.1-.5-.1-1-.1-1.5s.1-1 .1-1.5c.7-4.3 4.4-7.5 8.9-7.5s8.2 3.3 8.9 7.5c.1.5.1 1 .1 1.5.1.6 0 1.1-.1 1.5zm25.7 0c-.7 4.3-4.4 7.5-8.9 7.5s-8.2-3.3-8.9-7.5c-.1-.5-.1-1-.1-1.5s.1-1 .1-1.5c.7-4.3 4.4-7.5 8.9-7.5s8.2 3.3 8.9 7.5c.1.5.1 1 .1 1.5 0 .6 0 1.1-.1 1.5z"/></symbol><symbol id="footer-logo" viewBox="0 0 146.3 40.4"><style>.st0{fill:#283645}.st1{fill:#fff}.st2{fill:#d22856}</style><path class="st0" d="M71.9 18.7c0-.7.6-1.3 1.3-1.3h7.2c5.1 0 8.4 2.7 8.4 7.1v.1c0 4.9-4.1 7.4-8.9 7.4h-5.5v6.8c0 .7-.6 1.3-1.3 1.3-.7 0-1.3-.6-1.3-1.3l.1-20.1zM80 29.6c3.7 0 6.2-2 6.2-5v-.1c0-3.2-2.4-4.9-6.1-4.9h-5.7v9.9l5.6.1zm13.6-11.1c0-.7.6-1.3 1.3-1.3.7 0 1.3.6 1.3 1.3v20.3c0 .7-.6 1.3-1.3 1.3-.7 0-1.3-.6-1.3-1.3V18.5zm9.1 0c0-.7.6-1.3 1.3-1.3h.4c.6 0 .9.3 1.3.7l13.7 17.4v-17c0-.7.5-1.3 1.3-1.3.7 0 1.2.6 1.2 1.3v20.3c0 .7-.5 1.2-1.2 1.2h-.1c-.5 0-.9-.3-1.3-.8l-14-17.9v17.4c0 .7-.5 1.3-1.3 1.3-.7 0-1.2-.6-1.2-1.3l-.1-20zm25.5 0c0-.7.6-1.3 1.3-1.3.7 0 1.3.6 1.3 1.3v12.3l12.8-13.2c.3-.3.6-.5 1-.5.7 0 1.2.6 1.2 1.3 0 .4-.2.6-.4.9l-8 7.9 8.6 10.6c.2.3.4.5.4.9 0 .7-.6 1.3-1.3 1.3-.5 0-.8-.3-1-.6L135.6 29l-4.9 4.9v4.9c0 .7-.6 1.3-1.3 1.3-.7 0-1.3-.6-1.3-1.3l.1-20.3z"/><path fill="#D22856" class="st2" d="M60.5 28L55.3 6.6C54.9 4.3 52.7 0 46.7 0c-.8 0-1.5.7-1.5 1.5S45.9 3 46.7 3c4.9 0 5.6 3.7 5.6 4.1l4.8 19.7H55c-.7-5.9-5.8-10.5-11.9-10.5s-11.2 4.6-11.9 10.5h-1.8c-.7-5.9-5.8-10.5-11.9-10.5s-11.3 4.6-12 10.5H3.4L8.2 7.1C8.3 6.7 9 3 13.8 3c.8 0 1.5-.7 1.5-1.5S14.7 0 13.8 0c-6 0-8.2 4.3-8.6 6.7L0 28.1c-.3 1.1.5 1.8 1.4 1.8h4c.7 5.9 5.8 10.5 11.9 10.5s11.2-4.6 11.9-10.5H31c.7 5.9 5.8 10.5 11.9 10.5S54.3 35.8 55 29.8h4c.9 0 1.7-.7 1.5-1.8zm-34.2 1.8c-.7 4.3-4.4 7.5-8.9 7.5S9.2 34 8.5 29.8c-.1-.5-.1-1-.1-1.5s.1-1 .1-1.5c.7-4.3 4.4-7.5 8.9-7.5s8.2 3.3 8.9 7.5c.1.5.1 1 .1 1.5.1.6 0 1.1-.1 1.5zm25.7 0c-.7 4.3-4.4 7.5-8.9 7.5s-8.2-3.3-8.9-7.5c-.1-.5-.1-1-.1-1.5s.1-1 .1-1.5c.7-4.3 4.4-7.5 8.9-7.5s8.2 3.3 8.9 7.5c.1.5.1 1 .1 1.5 0 .6 0 1.1-.1 1.5z"/></symbol><symbol id="menu-burger-hover" viewBox="0 0 49.9 24"><style>.st0{fill:#d22856}</style><g id="miu"><g id="editor_list_view_hambuger_menu_glyph"><path id="path-1" class="st0" d="M1.1 0C.5 0 0 .4 0 1v2c0 .6.5 1 1.1 1h47.7c.6 0 1.1-.4 1.1-1V1c0-.6-.5-1-1.1-1H1.1zm0 10c-.6 0-1.1.4-1.1 1v2c0 .6.5 1 1.1 1h47.7c.6 0 1.1-.4 1.1-1v-2c0-.6-.5-1-1.1-1H1.1zm0 10c-.6 0-1.1.4-1.1 1v2c0 .6.5 1 1.1 1h47.7c.6 0 1.1-.4 1.1-1v-2c0-.6-.5-1-1.1-1H1.1z"/><path id="path-1_1_" class="st0" d="M1.1 0C.5 0 0 .4 0 1v2c0 .6.5 1 1.1 1h47.7c.6 0 1.1-.4 1.1-1V1c0-.6-.5-1-1.1-1H1.1zm0 10c-.6 0-1.1.4-1.1 1v2c0 .6.5 1 1.1 1h47.7c.6 0 1.1-.4 1.1-1v-2c0-.6-.5-1-1.1-1H1.1zm0 10c-.6 0-1.1.4-1.1 1v2c0 .6.5 1 1.1 1h47.7c.6 0 1.1-.4 1.1-1v-2c0-.6-.5-1-1.1-1H1.1z"/></g></g></symbol><symbol id="menu-burger" viewBox="0 0 49.9 24"><style>.st0{fill:#fff}</style><g id="miu"><g id="editor_list_view_hambuger_menu_glyph"><path id="path-1" class="st0" d="M1.1 0C.5 0 0 .4 0 1v2c0 .6.5 1 1.1 1h47.7c.6 0 1.1-.4 1.1-1V1c0-.6-.5-1-1.1-1H1.1zm0 10c-.6 0-1.1.4-1.1 1v2c0 .6.5 1 1.1 1h47.7c.6 0 1.1-.4 1.1-1v-2c0-.6-.5-1-1.1-1H1.1zm0 10c-.6 0-1.1.4-1.1 1v2c0 .6.5 1 1.1 1h47.7c.6 0 1.1-.4 1.1-1v-2c0-.6-.5-1-1.1-1H1.1z"/><path id="path-1_1_" class="st0" d="M1.1 0C.5 0 0 .4 0 1v2c0 .6.5 1 1.1 1h47.7c.6 0 1.1-.4 1.1-1V1c0-.6-.5-1-1.1-1H1.1zm0 10c-.6 0-1.1.4-1.1 1v2c0 .6.5 1 1.1 1h47.7c.6 0 1.1-.4 1.1-1v-2c0-.6-.5-1-1.1-1H1.1zm0 10c-.6 0-1.1.4-1.1 1v2c0 .6.5 1 1.1 1h47.7c.6 0 1.1-.4 1.1-1v-2c0-.6-.5-1-1.1-1H1.1z"/></g></g></symbol><symbol id="menu-close-hover" viewBox="0 0 23.9 23.9"><style>.st0{fill:#d22856}</style><path class="st0" d="M15.1 11.9l8.6-8.6c.3-.3.3-.8 0-1.1L21.6.1c-.2 0-.4-.1-.6-.1-.2 0-.4.1-.5.2l-8.6 8.6L3.4.2c-.3-.3-.8-.3-1.1 0L.2 2.3c-.3.3-.3.8 0 1.1L8.8 12 .2 20.6c-.3.3-.3.8 0 1.1l2.1 2.1c.1.1.3.2.5.2s.4-.1.5-.2l8.6-8.6 8.6 8.6c.1.1.3.2.5.2s.4-.1.5-.2l2.1-2.1c.3-.3.3-.8 0-1.1l-8.5-8.7z"/></symbol><symbol id="menu-close" viewBox="0 0 23.9 23.9"><style>.st0{fill:#fff}</style><path class="st0" d="M15.1 11.9l8.6-8.6c.3-.3.3-.8 0-1.1L21.6.1c-.2 0-.4-.1-.6-.1-.2 0-.4.1-.5.2l-8.6 8.6L3.4.2c-.3-.3-.8-.3-1.1 0L.2 2.3c-.3.3-.3.8 0 1.1L8.8 12 .2 20.6c-.3.3-.3.8 0 1.1l2.1 2.1c.1.1.3.2.5.2s.4-.1.5-.2l8.6-8.6 8.6 8.6c.1.1.3.2.5.2s.4-.1.5-.2l2.1-2.1c.3-.3.3-.8 0-1.1l-8.5-8.7z"/></symbol><symbol id="os-list-item-android" viewBox="0 0 42.1 47"><style>.st0{fill:#a4c639}</style><path fill="#A4C639" class="st0" d="M34.1 14H7.9v19.1c0 1.9 1.5 3.5 3.3 3.6v7.4c0 1.6 1.3 2.9 2.9 2.9 1.6 0 2.9-1.3 2.9-2.9v-7.4h8.1v7.4c0 1.6 1.3 2.9 2.9 2.9 1.6 0 2.9-1.3 2.9-2.9v-7.4c1.9-.1 3.3-1.7 3.3-3.6V14.3c0-.1 0-.2-.1-.3z"/><path fill="#A4C639" id="c-4-9-2-9-2-9" class="st0" d="M2.9 15.7c1.6 0 2.9 1.3 2.9 2.9V31c0 1.6-1.3 2.9-2.9 2.9C1.3 33.9 0 32.6 0 31V18.6c0-1.6 1.3-2.9 2.9-2.9z"/><path fill="#A4C639" id="c-4-1-7-3-8-4" class="st0" d="M39.2 15.7c1.6 0 2.9 1.3 2.9 2.9V31c0 1.6-1.3 2.9-2.9 2.9-1.6 0-2.9-1.3-2.9-2.9V18.6c0-1.6 1.3-2.9 2.9-2.9z"/><path fill="#A4C639" class="st0" d="M8 12h26c0-2.8-1.2-5.3-3.2-7.3L33.2.5c.1-.1 0-.3-.1-.4-.1-.1-.3 0-.4.1l-2.4 4.1C28.2 2.4 24.1.9 20.9.9c-3 0-7.3 1.5-9.4 3.4L9.3.2C9.2 0 9 0 8.9 0c-.2.1-.2.3-.1.5l2.4 4.2C9.3 6.6 8.1 9.2 8 12zm17.3-5.2c0-.8.7-1.5 1.5-1.5s1.5.6 1.5 1.5c0 .8-.7 1.5-1.5 1.5s-1.5-.7-1.5-1.5zm-11.1 0c0-.8.7-1.5 1.5-1.5s1.5.6 1.5 1.5c0 .8-.7 1.5-1.5 1.5s-1.5-.7-1.5-1.5z"/></symbol><symbol id="os-list-item-ios" viewBox="0 0 46.2 56.8"><style>.st0{fill:#fff}</style><path fill="#FFF" class="st0" d="M38.6 30.1c.1 8.6 7.5 11.4 7.6 11.5-.1.2-1.2 4.1-3.9 8.1-2.4 3.5-4.8 6.9-8.7 7-3.8.1-5-2.3-9.4-2.3-4.3 0-5.7 2.2-9.3 2.3-3.7.1-6.6-3.7-9-7.2-4.9-7-8.6-19.9-3.6-28.6 2.5-4.3 6.9-7 11.7-7.1 3.7-.1 7.1 2.5 9.4 2.5 2.2 0 6.4-3 10.9-2.6 1.9.1 7 .7 10.4 5.6-.2.2-6.2 3.7-6.1 10.8m-7.1-21c2-2.4 3.3-5.7 3-9.1-2.9.1-6.3 1.9-8.4 4.3-1.8 2.1-3.4 5.5-3 8.8 3.1.2 6.4-1.6 8.4-4"/></symbol><symbol id="os-list-item-windows" viewBox="0 0 43.9 42"><style>.st0{fill:#f05423}.st1{fill:#84c441}.st2{fill:#2dabe2}</style><path fill="#F05423" id="path5058" class="st0" d="M20.9 20H0V0h20.9v20z"/><path fill="#84C441" id="path5060" class="st1" d="M43.9 20H23V0h20.9v20z"/><path fill="#2DABE2" id="path5062" class="st2" d="M20.9 42H0V22h20.9v20z"/><path fill="#f9bc15" id="path5064" d="M43.9 42H23V22h20.9v20z"/></symbol><symbol id="photo-control-contrast" viewBox="-35.4 -8 31.9 31.9"><style>.st0{fill:#231f20}</style><path class="st0" d="M-19.5-4c6.6 0 12 5.4 12 12s-5.4 12-12 12-12-5.4-12-12 5.4-12 12-12m0-4c-8.8 0-16 7.1-16 16 0 8.8 7.1 16 16 16 8.8 0 16-7.1 16-16 0-8.8-7.1-16-16-16z"/><path d="M-19.5 16.3c4.7 0 8.5-3.8 8.5-8.5s-3.8-8.5-8.5-8.5"/></symbol><symbol id="photo-control-crop" viewBox="0 0 48 48"><style>.st0{fill:none}</style><path class="st0" d="M0 0h48v48H0V0z"/><path d="M34 30h4V14c0-2.2-1.8-4-4-4H18v4h16v16zm-20 4V2h-4v8H2v4h8v20c0 2.2 1.8 4 4 4h20v8h4v-8h8v-4H14z"/></symbol><symbol id="photo-control-fill" viewBox="0 0 48 48"><style>.st0{fill:none}</style><path class="st0" d="M0 0h48v48H0V0z"/><path d="M33.1 17.9L15.2 0l-2.8 2.8 4.8 4.8L6.9 17.9c-1.2 1.2-1.2 3.1 0 4.2l11 11c.6.6 1.4.9 2.1.9s1.5-.3 2.1-.9l11-11c1.2-1.1 1.2-3.1 0-4.2zM10.4 20l9.6-9.6 9.6 9.6H10.4zM38 23s-4 4.3-4 7c0 2.2 1.8 4 4 4s4-1.8 4-4c0-2.7-4-7-4-7zM0 40h48v3H0z"/></symbol><symbol id="review-blockquote-icon" viewBox="0 0 78.7 63.8"><path d="M35 7.1L30.7 0C28.3 1.5 0 12.2 0 39.6c0 7.2.3 24.2 18.9 24.2 11.2 0 13.9-10.3 13.9-13.6 0-22-21.4-14.2-21.4-14.2C11.5 18 31.3 9.2 35 7.1zm43.7 0L74.4 0C72 1.5 43.7 12.2 43.7 39.6c0 7.2.3 24.2 18.9 24.2 11.2 0 13.9-10.3 13.9-13.6 0-22-21.4-14.2-21.4-14.2C55.2 18 75 9.2 78.7 7.1z" fill="#efefef"/></symbol><symbol id="slider-toggle-left" viewBox="0 0 21.5 41.4"><path d="M2 20.7L21.3 1.4c.3-.3.3-.9 0-1.2-.3-.3-.9-.3-1.2 0L.2 20.1c-.3.3-.3.9 0 1.2L20 41.1c.2.2.4.2.6.2.2 0 .4-.1.6-.2.3-.3.3-.9 0-1.2L2 20.7z"/></symbol><symbol id="form-fields-checkox-tick" viewBox="0 0 24 24"><path d="M22.7 5.2c-.4-.4-1-.4-1.4 0L7.9 18.6 3 13.7c-.4-.4-1-.4-1.4 0-.4.4-.4 1 0 1.4l5.6 5.6c.2.2.5.3.7.3.3 0 .5-.1.7-.3L22.7 6.6c.4-.4.4-1 0-1.4z"/></symbol><symbol id="social-link-facebook" viewBox="0 0 8.7 18.9"><style>.st0{fill:#d22856}</style><path class="st0" d="M6.3 3.4h2.4V0H5.8C2.7.2 1.5 2.4 1.9 6.1H0v3.5h2v9.3h3.8V9.6h2.9V6.1H5.8c0-1 0-2.4.5-2.7z"/></symbol><symbol id="social-link-htmlacademy-hover" viewBox="0 0 614.1 800"><style>.st0{fill:#283645;stroke:#231f20;stroke-miterlimit:10}</style><path class="st0" d="M310 11l-3.2-.4L-.5 42.7V606l307.3 182.7L614.1 606V42.7L310 11zm264 572.1L306.8 741.8 39.6 582.7V352l266 158.3.4 28.8-182.3-108.6-.4 28 183.1 110.2.4 29.2L123.7 489l-.4 28 183.1 110.2 185.1-110.6v-28h-.4v-91.3l82.5-49.3v235.2h.4v-.1zm-.4-264.8l-72.9 42.9-33.7 20-160.7-95.8-.4 28 137.4 81.7-1.2.8-2.8 1.6-19.6 11.6-113.4-67.7-.4 28 89.7 53.3-21.2 14-.4.4-67.7-40.1-.4 28 44.5 26-45.3 27.2L40.8 321.1l264.8-159.5 268 156.7zm.4-28L305.6 132 40 290.3V79.1l267.2-28 267.2 28v211.1l-.4.1z"/></symbol><symbol id="social-link-htmlacademy" viewBox="0 0 614.1 800"><style>.st0{fill:#d22856;stroke:#231f20;stroke-miterlimit:10}</style><path class="st0" d="M310 11l-3.2-.4L-.5 42.7V606l307.3 182.7L614.1 606V42.7L310 11zm264 572.1L306.8 741.8 39.6 582.7V352l266 158.3.4 28.8-182.3-108.6-.4 28 183.1 110.2.4 29.2L123.7 489l-.4 28 183.1 110.2 185.1-110.6v-28h-.4v-91.3l82.5-49.3v235.2h.4v-.1zm-.4-264.8l-72.9 42.9-33.7 20-160.7-95.8-.4 28 137.4 81.7-1.2.8-2.8 1.6-19.6 11.6-113.4-67.7-.4 28 89.7 53.3-21.2 14-.4.4-67.7-40.1-.4 28 44.5 26-45.3 27.2L40.8 321.1l264.8-159.5 268 156.7zm.4-28L305.6 132 40 290.3V79.1l267.2-28 267.2 28v211.1l-.4.1z"/></symbol><symbol id="social-link-twiter" viewBox="0 0 17.5 14.7"><g id="W6EeEF_1_"><style>.st0{fill:#d22856}</style><path class="st0" d="M11.3.2C13-.3 14.4.4 15 1.3c.7-.2 1.4-.5 2.1-.7 0 .8-.5 1.5-.9 1.7.7.2 1.3-.5 1.3-.5-.2 1-1 1.7-1.6 2-.2 6.6-3.3 11-10.4 10.8H5c-.4 0-4.3-.4-5-1.8 2.3.2 4-.4 4.8-1.1-1-.3-2.8-.5-3.1-2.9.4.1.6.2 1.3.1C1.8 8.1.4 7.4.5 5.2c.3.3 1.1.5 1.4.5-.7-.2-2-3.3-.9-4.8 1.9 1.8 3.8 3.5 7.4 3.7C8.5 2.3 9.5.8 11.3.2z"/></g></symbol><symbol id="social-link-youtube" viewBox="0 0 14.6 14"><style>.st0{fill:#d22856}</style><path class="st0" d="M1.8 13.8c-1 .5-1.8 0-1.8-1.1V1.3C0 .2.8-.3 1.8.2l12.1 5.9c1 .5 1 1.3 0 1.7l-12.1 6z"/></symbol><symbol id="tariff-icon-none" viewBox="0 0 26.8 26.8"><style>.st0{fill:#f25b26}</style><path class="st0" d="M15.5 13.4L26.3 2.6c.6-.6.6-1.5 0-2.1-.6-.6-1.5-.6-2.1 0L13.4 11.3 2.6.4C2-.1 1-.1.4.4-.1 1-.1 2 .4 2.6l10.8 10.8L.4 24.2c-.6.6-.6 1.5 0 2.1.3.3.7.4 1.1.4.4 0 .8-.1 1.1-.4l10.8-10.8 10.8 10.8c.3.3.7.4 1.1.4.4 0 .8-.1 1.1-.4.6-.6.6-1.5 0-2.1L15.5 13.4z"/></symbol><symbol id="tariff-icon-yes" viewBox="0 0 30.4 21.7"><style>.st0{fill:#49ca50}</style><path class="st0" d="M29.9.4c-.6-.6-1.5-.6-2.1 0L10.2 18.1l-7.6-7.6C2 9.9 1 9.9.4 10.4c-.6.6-.6 1.5 0 2.1l8.7 8.7c.3.3.7.4 1.1.4.4 0 .8-.1 1.1-.4L29.9 2.6c.6-.6.6-1.6 0-2.2z"/></symbol></svg>